<?xml version="1.0" encoding="UTF-8" standalone="no"?>
<svg
   xmlns:dc="http://purl.org/dc/elements/1.1/"
   xmlns:cc="http://creativecommons.org/ns#"
   xmlns:rdf="http://www.w3.org/1999/02/22-rdf-syntax-ns#"
   xmlns:svg="http://www.w3.org/2000/svg"
   xmlns="http://www.w3.org/2000/svg"
   xmlns:sodipodi="http://sodipodi.sourceforge.net/DTD/sodipodi-0.dtd"
   xmlns:inkscape="http://www.inkscape.org/namespaces/inkscape"
   width="1520"
   height="680"
   id="svg2"
   version="1.1"
   inkscape:version="0.91 r13725"
   sodipodi:docname="2x3.svg">
  <metadata
     id="metadata682">
    <rdf:RDF>
      <cc:Work
         rdf:about="">
        <dc:format>image/svg+xml</dc:format>
        <dc:type
           rdf:resource="http://purl.org/dc/dcmitype/StillImage" />
        <dc:title></dc:title>
      </cc:Work>
    </rdf:RDF>
  </metadata>
  <defs
     id="defs680" />
  <sodipodi:namedview
     pagecolor="#ffffff"
     bordercolor="#666666"
     borderopacity="1"
     objecttolerance="10"
     gridtolerance="10"
     guidetolerance="10"
     inkscape:pageopacity="0"
     inkscape:pageshadow="2"
     inkscape:window-width="1920"
     inkscape:window-height="1017"
     id="namedview678"
     showgrid="false"
     fit-margin-top="0"
     fit-margin-left="0"
     fit-margin-right="0"
     fit-margin-bottom="0"
     inkscape:zoom="0.37083333"
     inkscape:cx="1246.9886"
     inkscape:cy="-163.96817"
     inkscape:window-x="1912"
     inkscape:window-y="-8"
     inkscape:window-maximized="1"
     inkscape:current-layer="svg2" />
  <path
     d="m 1384,490 136,28 0,-233 z"
     id="path30"
     style="fill:#0f4d92;stroke:none;stroke-width:1.50999999"
     inkscape:connector-curvature="0"
     sodipodi:nodetypes="cccc" />
  <path
     d="m 1367,328 17,162 136,-205 z"
     id="path32"
     style="fill:#135498;stroke:none;stroke-width:1.50999999"
     inkscape:connector-curvature="0"
     sodipodi:nodetypes="cccc" />
  <path
     d="m 1321,52 128,137 71,-123 z"
     id="path52"
     style="fill:#2a66a1;stroke:none;stroke-width:1.50999999"
     inkscape:connector-curvature="0"
     sodipodi:nodetypes="cccc" />
  <path
     d="m 1449,189 71,96 0,-219 z"
     id="path60"
     style="fill:#235d9a;stroke:none;stroke-width:1.50999999"
     inkscape:connector-curvature="0"
     sodipodi:nodetypes="cccc" />
  <path
     d="m 1376,680 144,0 0,-162 z"
     id="path70"
     inkscape:connector-curvature="0"
     style="fill:#093e80;stroke:none;stroke-width:1.50999999"
     sodipodi:nodetypes="cccc" />
  <path
     d="m 1384,490 -8,190 144,-162 z"
     id="path74"
     inkscape:connector-curvature="0"
     style="fill:#094489;stroke:none;stroke-width:1.50999999"
     sodipodi:nodetypes="cccc" />
  <path
     d="m 1321,52 -35,84 163,53 z"
     id="path78"
     style="fill:#2969a8;stroke:none;stroke-width:1.50999999"
     inkscape:connector-curvature="0" />
  <path
     d="m 1449,189 -82,139 153,-43 z"
     id="path80"
     style="fill:#1b5a9c;stroke:none;stroke-width:1.50999999"
     inkscape:connector-curvature="0"
     sodipodi:nodetypes="cccc" />
  <path
     d="m 1286,136 81,192 82,-139 z"
     id="path84"
     style="fill:#2061a3;stroke:none;stroke-width:1.50999999"
     inkscape:connector-curvature="0" />
  <path
     d="m 1286,136 -47,238 128,-46 z"
     id="path88"
     style="fill:#1a61a6;stroke:none;stroke-width:1.50999999"
     inkscape:connector-curvature="0" />
  <path
     d="m 1367,328 -128,46 145,116 z"
     id="path90"
     style="fill:#11559c;stroke:none;stroke-width:1.50999999"
     inkscape:connector-curvature="0" />
  <path
     d="m 1239,374 -40,116 185,0 z"
     id="path92"
     style="fill:#0d549e;stroke:none;stroke-width:1.50999999"
     inkscape:connector-curvature="0" />
  <path
     d="m 1235,593 141,87 8,-190 z"
     id="path94"
     inkscape:connector-curvature="0"
     style="fill:#09468b;stroke:none;stroke-width:1.50999999"
     sodipodi:nodetypes="cccc" />
  <path
     d="m 1199,490 36,103 149,-103 z"
     id="path96"
     inkscape:connector-curvature="0"
     style="fill:#084d97;stroke:none;stroke-width:1.50999999"
     sodipodi:nodetypes="cccc" />
  <path
     d="m 1159,185 80,189 47,-238 z"
     id="path102"
     style="fill:#2068ad;stroke:none;stroke-width:1.50999999"
     inkscape:connector-curvature="0" />
  <path
     d="m 1165,0 121,136 35,-84 z"
     id="path120"
     style="fill:#3073b2;stroke:none;stroke-width:1.50999999"
     inkscape:connector-curvature="0"
     sodipodi:nodetypes="cccc" />
  <path
     d="m 1520,0 -355,0 156,52 z"
     id="path122"
     style="fill:#3978b5;stroke:none;stroke-width:1.50999999"
     inkscape:connector-curvature="0"
     sodipodi:nodetypes="cccc" />
  <path
     d="m 1165,0 -6,185 127,-49 z"
     id="path124"
     style="fill:#2c73b3;stroke:none;stroke-width:1.50999999"
     inkscape:connector-curvature="0"
     sodipodi:nodetypes="cccc" />
  <path
     d="m 1159,185 -122,160 202,29 z"
     id="path136"
     style="fill:#1b67ad;stroke:none;stroke-width:1.50999999"
     inkscape:connector-curvature="0" />
  <path
     d="m 1045,463 154,27 40,-116 z"
     id="path138"
     style="fill:#135ba4;stroke:none;stroke-width:1.50999999"
     inkscape:connector-curvature="0" />
  <path
     d="m 1037,345 8,118 194,-89 z"
     id="path140"
     style="fill:#1862aa;stroke:none;stroke-width:1.50999999"
     inkscape:connector-curvature="0" />
  <path
     d="m 1199,490 -112,190 148,-87 z"
     id="path142"
     inkscape:connector-curvature="0"
     style="fill:#0d4f96;stroke:none;stroke-width:1.50999999"
     sodipodi:nodetypes="cccc" />
  <path
     d="m 1029,53 130,132 6,-185 z"
     id="path156"
     style="fill:#317ab7;stroke:none;stroke-width:1.50999999"
     inkscape:connector-curvature="0"
     sodipodi:nodetypes="cccc" />
  <path
     d="m 1029,53 -8,83 138,49 z"
     id="path160"
     style="fill:#2e79b8;stroke:none;stroke-width:1.50999999"
     inkscape:connector-curvature="0" />
  <path
     d="m 1045,463 42,217 112,-190 z"
     id="path162"
     inkscape:connector-curvature="0"
     style="fill:#10579f;stroke:none;stroke-width:1.50999999"
     sodipodi:nodetypes="cccc" />
  <path
     d="m 1021,136 16,209 122,-160 z"
     id="path164"
     style="fill:#2671b4;stroke:none;stroke-width:1.50999999"
     inkscape:connector-curvature="0" />
  <path
     d="M 1039,0 1029,53 1165,0 Z"
     id="path166"
     style="fill:#4083bd;stroke:none;stroke-width:1.50999999"
     inkscape:connector-curvature="0"
     sodipodi:nodetypes="cccc" />
  <path
     d="m 1021,136 -100,151 116,58 z"
     id="path170"
     style="fill:#2572b5;stroke:none;stroke-width:1.50999999"
     inkscape:connector-curvature="0" />
  <path
     d="m 931,0 98,53 10,-53 z"
     id="path172"
     style="fill:#488bc3;stroke:none;stroke-width:1.50999999"
     inkscape:connector-curvature="0"
     sodipodi:nodetypes="cccc" />
  <path
     d="m 1045,463 -181,11 223,206 z"
     id="path180"
     inkscape:connector-curvature="0"
     style="fill:#165da5;stroke:none;stroke-width:1.50999999"
     sodipodi:nodetypes="cccc" />
  <path
     d="m 864,474 -35,206 258,0 z"
     id="path182"
     inkscape:connector-curvature="0"
     style="fill:#1a5da0;stroke:none;stroke-width:1.50999999"
     sodipodi:nodetypes="cccc" />
  <path
     d="m 913,152 8,135 100,-151 z"
     id="path194"
     style="fill:#2c7aba;stroke:none;stroke-width:1.50999999"
     inkscape:connector-curvature="0" />
  <path
     d="m 931,0 -92,35 190,18 z"
     id="path196"
     style="fill:#438ac3;stroke:none;stroke-width:1.50999999"
     inkscape:connector-curvature="0"
     sodipodi:nodetypes="cccc" />
  <path
     d="M 1037,345 864,474 1045,463 Z"
     id="path200"
     style="fill:#1b66ac;stroke:none;stroke-width:1.50999999"
     inkscape:connector-curvature="0" />
  <path
     d="M 921,287 864,474 1037,345 Z"
     id="path202"
     style="fill:#206db1;stroke:none;stroke-width:1.50999999"
     inkscape:connector-curvature="0" />
  <path
     d="m 913,152 108,-16 8,-83 z"
     id="path204"
     style="fill:#317ebc;stroke:none;stroke-width:1.50999999"
     inkscape:connector-curvature="0" />
  <path
     d="m 839,35 74,117 116,-99 z"
     id="path206"
     style="fill:#3884bf;stroke:none;stroke-width:1.50999999"
     inkscape:connector-curvature="0" />
  <path
     d="m 913,152 -223,59 231,76 z"
     id="path214"
     style="fill:#317ebc;stroke:none;stroke-width:1.50999999"
     inkscape:connector-curvature="0" />
  <path
     d="M 699,299 864,474 921,287 Z"
     id="path216"
     style="fill:#2874b5;stroke:none;stroke-width:1.50999999"
     inkscape:connector-curvature="0" />
  <path
     d="M 713,0 839,35 931,0 Z"
     id="path218"
     style="fill:#4d93c8;stroke:none;stroke-width:1.50999999"
     inkscape:connector-curvature="0"
     sodipodi:nodetypes="cccc" />
  <path
     d="m 690,211 9,88 222,-12 z"
     id="path224"
     style="fill:#307ebc;stroke:none;stroke-width:1.50999999"
     inkscape:connector-curvature="0" />
  <path
     d="M 760,79 690,211 913,152 Z"
     id="path230"
     style="fill:#3987c1;stroke:none;stroke-width:1.50999999"
     inkscape:connector-curvature="0" />
  <path
     d="m 839,35 -79,44 153,73 z"
     id="path232"
     style="fill:#3b88c2;stroke:none;stroke-width:1.50999999"
     inkscape:connector-curvature="0" />
  <path
     d="M 706,465 829,680 864,474 Z"
     id="path238"
     inkscape:connector-curvature="0"
     style="fill:#2367aa;stroke:none;stroke-width:1.50999999"
     sodipodi:nodetypes="cccc" />
  <path
     d="m 699,299 7,166 158,9 z"
     id="path240"
     style="fill:#2a73b4;stroke:none;stroke-width:1.50999999"
     inkscape:connector-curvature="0" />
  <path
     d="m 706,465 70,215 53,0 z"
     id="path246"
     inkscape:connector-curvature="0"
     style="fill:#2564a4;stroke:none;stroke-width:1.50999999"
     sodipodi:nodetypes="cccc" />
  <path
     d="m 713,0 47,79 79,-44 z"
     id="path248"
     style="fill:#4792c7;stroke:none;stroke-width:1.50999999"
     inkscape:connector-curvature="0"
     sodipodi:nodetypes="cccc" />
  <path
     d="M 713,0 636,0 760,79 Z"
     id="path254"
     style="fill:#4c97c9;stroke:none;stroke-width:1.50999999"
     inkscape:connector-curvature="0"
     sodipodi:nodetypes="cccc" />
  <path
     d="m 706,465 -132,215 202,0 z"
     id="path262"
     inkscape:connector-curvature="0"
     style="fill:#2967a5;stroke:none;stroke-width:1.50999999"
     sodipodi:nodetypes="cccc" />
  <path
     d="m 699,299 -65,5 72,161 z"
     id="path266"
     style="fill:#307cb9;stroke:none;stroke-width:1.50999999"
     inkscape:connector-curvature="0" />
  <path
     d="M 569,160 690,211 760,79 Z"
     id="path270"
     style="fill:#3e8dc4;stroke:none;stroke-width:1.50999999"
     inkscape:connector-curvature="0" />
  <path
     d="M 636,0 569,160 760,79 Z"
     id="path272"
     style="fill:#4593c7;stroke:none;stroke-width:1.50999999"
     inkscape:connector-curvature="0"
     sodipodi:nodetypes="cccc" />
  <path
     d="m 471,638 -164,42 267,0 z"
     id="path274"
     inkscape:connector-curvature="0"
     style="fill:#3a6ca3;stroke:none;stroke-width:1.50999999"
     sodipodi:nodetypes="cccc" />
  <path
     d="m 690,211 -56,93 65,-5 z"
     id="path276"
     style="fill:#3583bf;stroke:none;stroke-width:1.50999999"
     inkscape:connector-curvature="0" />
  <path
     d="m 634,304 -46,131 118,30 z"
     id="path278"
     style="fill:#327ab8;stroke:none;stroke-width:1.50999999"
     inkscape:connector-curvature="0" />
  <path
     d="M 588,435 574,680 706,465 Z"
     id="path280"
     inkscape:connector-curvature="0"
     style="fill:#3071b0;stroke:none;stroke-width:1.50999999"
     sodipodi:nodetypes="cccc" />
  <path
     d="m 569,160 65,144 56,-93 z"
     id="path292"
     style="fill:#3c89c2;stroke:none;stroke-width:1.50999999"
     inkscape:connector-curvature="0" />
  <path
     d="m 461,492 10,146 103,42 z"
     id="path294"
     inkscape:connector-curvature="0"
     style="fill:#3870aa;stroke:none;stroke-width:1.50999999"
     sodipodi:nodetypes="cccc" />
  <path
     d="M 461,492 574,680 588,435 Z"
     id="path298"
     inkscape:connector-curvature="0"
     style="fill:#3774b1;stroke:none;stroke-width:1.50999999"
     sodipodi:nodetypes="cccc" />
  <path
     d="m 569,160 -152,3 217,141 z"
     id="path302"
     style="fill:#448ec5;stroke:none;stroke-width:1.50999999"
     inkscape:connector-curvature="0" />
  <path
     d="m 385,387 203,48 46,-131 z"
     id="path304"
     style="fill:#3c81bc;stroke:none;stroke-width:1.50999999"
     inkscape:connector-curvature="0" />
  <path
     d="M 403,0 569,160 636,0 Z"
     id="path306"
     style="fill:#509acb;stroke:none;stroke-width:1.50999999"
     inkscape:connector-curvature="0"
     sodipodi:nodetypes="cccc" />
  <path
     d="M 417,163 385,387 634,304 Z"
     id="path310"
     style="fill:#448bc3;stroke:none;stroke-width:1.50999999"
     inkscape:connector-curvature="0" />
  <path
     d="m 403,0 14,163 152,-3 z"
     id="path314"
     style="fill:#509acb;stroke:none;stroke-width:1.50999999"
     inkscape:connector-curvature="0"
     sodipodi:nodetypes="cccc" />
  <path
     d="m 385,387 76,105 127,-57 z"
     id="path318"
     style="fill:#3e7fba;stroke:none;stroke-width:1.50999999"
     inkscape:connector-curvature="0" />
  <path
     d="M 275,168 385,387 417,163 Z"
     id="path338"
     style="fill:#4f94c8;stroke:none;stroke-width:1.50999999"
     inkscape:connector-curvature="0" />
  <path
     d="M 253,462 307,680 461,492 Z"
     id="path342"
     style="fill:#467bb4;stroke:none;stroke-width:1.50999999"
     inkscape:connector-curvature="0"
     sodipodi:nodetypes="cccc" />
  <path
     d="M 461,492 307,680 471,638 Z"
     id="path346"
     style="fill:#3e73ab;stroke:none;stroke-width:1.50999999"
     inkscape:connector-curvature="0"
     sodipodi:nodetypes="cccc" />
  <path
     d="M 403,0 307,61 417,163 Z"
     id="path348"
     style="fill:#58a1cf;stroke:none;stroke-width:1.50999999"
     inkscape:connector-curvature="0"
     sodipodi:nodetypes="cccc" />
  <path
     d="m 275,168 62,226 48,-7 z"
     id="path352"
     style="fill:#4e8fc5;stroke:none;stroke-width:1.50999999"
     inkscape:connector-curvature="0" />
  <path
     d="m 385,387 -48,7 124,98 z"
     id="path356"
     style="fill:#4583bd;stroke:none;stroke-width:1.50999999"
     inkscape:connector-curvature="0" />
  <path
     d="m 337,394 -84,68 208,30 z"
     id="path358"
     style="fill:#4883bc;stroke:none;stroke-width:1.50999999"
     inkscape:connector-curvature="0" />
  <path
     d="m 307,61 -32,107 142,-5 z"
     id="path368"
     style="fill:#589ecd;stroke:none;stroke-width:1.50999999"
     inkscape:connector-curvature="0" />
  <path
     d="M 296,0 307,61 403,0 Z"
     id="path372"
     style="fill:#63a7d2;stroke:none;stroke-width:1.50999999"
     inkscape:connector-curvature="0"
     sodipodi:nodetypes="cccc" />
  <path
     d="M 275,168 151,323 337,394 Z"
     id="path374"
     style="fill:#5794c8;stroke:none;stroke-width:1.50999999"
     inkscape:connector-curvature="0" />
  <path
     d="m 149,229 2,94 124,-155 z"
     id="path380"
     style="fill:#619ccb;stroke:none;stroke-width:1.50999999"
     inkscape:connector-curvature="0" />
  <path
     d="m 253,462 -88,218 142,0 z"
     id="path386"
     style="fill:#4e7aae;stroke:none;stroke-width:1.50999999"
     inkscape:connector-curvature="0"
     sodipodi:nodetypes="cccc" />
  <path
     d="m 151,323 102,139 84,-68 z"
     id="path388"
     style="fill:#548cc2;stroke:none;stroke-width:1.50999999"
     inkscape:connector-curvature="0" />
  <path
     d="M 296,0 169,0 307,61 Z"
     id="path392"
     style="fill:#6babd4;stroke:none;stroke-width:1.50999999"
     inkscape:connector-curvature="0"
     sodipodi:nodetypes="cccc" />
  <path
     d="m 151,323 7,120 95,19 z"
     id="path398"
     style="fill:#5a8dc2;stroke:none;stroke-width:1.50999999"
     inkscape:connector-curvature="0" />
  <path
     d="m 158,443 7,237 88,-218 z"
     id="path400"
     style="fill:#5683b9;stroke:none;stroke-width:1.50999999"
     inkscape:connector-curvature="0"
     sodipodi:nodetypes="cccc" />
  <path
     d="M 169,0 275,168 307,61 Z"
     id="path404"
     style="fill:#65a6d1;stroke:none;stroke-width:1.50999999"
     inkscape:connector-curvature="0"
     sodipodi:nodetypes="cccc" />
  <path
     d="M 169,0 149,229 275,168 Z"
     id="path410"
     style="fill:#66a5d0;stroke:none;stroke-width:1.50999999"
     inkscape:connector-curvature="0"
     sodipodi:nodetypes="cccc" />
  <path
     d="M 0,0 0,243 149,229 Z"
     id="path418"
     style="fill:#73a9d2;stroke:none;stroke-width:1.50999999"
     inkscape:connector-curvature="0"
     sodipodi:nodetypes="cccc" />
  <path
     d="M 158,443 0,489 165,680 Z"
     id="path420"
     style="fill:#5c86b9;stroke:none;stroke-width:1.50999999"
     inkscape:connector-curvature="0"
     sodipodi:nodetypes="cccc" />
  <path
     d="m 0,489 0,191 165,0 z"
     id="path422"
     style="fill:#5e81b1;stroke:none;stroke-width:1.50999999"
     inkscape:connector-curvature="0"
     sodipodi:nodetypes="cccc" />
  <path
     d="M 0,0 149,229 169,0 Z"
     id="path424"
     style="fill:#73aed4;stroke:none;stroke-width:1.50999999"
     inkscape:connector-curvature="0"
     sodipodi:nodetypes="cccc" />
  <path
     d="M 151,323 0,363 158,443 Z"
     id="path438"
     style="fill:#6394c6;stroke:none;stroke-width:1.50999999"
     inkscape:connector-curvature="0"
     sodipodi:nodetypes="cccc" />
  <path
     d="M 149,229 0,243 151,323 Z"
     id="path446"
     style="fill:#689ecc;stroke:none;stroke-width:1.50999999"
     inkscape:connector-curvature="0"
     sodipodi:nodetypes="cccc" />
  <path
     d="M 0,363 0,489 158,443 Z"
     id="path448"
     style="fill:#6592c3;stroke:none;stroke-width:1.50999999"
     inkscape:connector-curvature="0"
     sodipodi:nodetypes="cccc" />
  <path
     d="M 0,243 0,363 151,323 Z"
     id="path450"
     style="fill:#6b9ccb;stroke:none;stroke-width:1.50999999"
     inkscape:connector-curvature="0"
     sodipodi:nodetypes="cccc" />
  <path
     d="m 1321,52 199,14 0,-66 z"
     id="path120-4"
     style="fill:#3073b2;stroke:none;stroke-width:1.50999999"
     inkscape:connector-curvature="0"
     sodipodi:nodetypes="cccc" />
  <path
     d="m 1235,593 -148,87 289,0 z"
     id="path182-4"
     inkscape:connector-curvature="0"
     style="fill:#0f4d92;fill-opacity:1;stroke:none;stroke-width:1.50999999"
     sodipodi:nodetypes="cccc" />
</svg>
