<?xml version="1.0" encoding="UTF-8" standalone="no"?>
<svg
   xmlns:dc="http://purl.org/dc/elements/1.1/"
   xmlns:cc="http://creativecommons.org/ns#"
   xmlns:rdf="http://www.w3.org/1999/02/22-rdf-syntax-ns#"
   xmlns:svg="http://www.w3.org/2000/svg"
   xmlns="http://www.w3.org/2000/svg"
   xmlns:sodipodi="http://sodipodi.sourceforge.net/DTD/sodipodi-0.dtd"
   xmlns:inkscape="http://www.inkscape.org/namespaces/inkscape"
   fill="#FFFFFF"
   height="24"
   viewBox="0 0 24 24"
   width="24"
   id="svg2"
   version="1.1"
   inkscape:version="0.91 r13725"
   sodipodi:docname="ic_settings_white_full_24px.svg">
  <metadata
     id="metadata12">
    <rdf:RDF>
      <cc:Work
         rdf:about="">
        <dc:format>image/svg+xml</dc:format>
        <dc:type
           rdf:resource="http://purl.org/dc/dcmitype/StillImage" />
        <dc:title></dc:title>
      </cc:Work>
    </rdf:RDF>
  </metadata>
  <defs
     id="defs10" />
  <sodipodi:namedview
     pagecolor="#aeffff"
     bordercolor="#666666"
     borderopacity="1"
     objecttolerance="10"
     gridtolerance="10"
     guidetolerance="10"
     inkscape:pageopacity="0"
     inkscape:pageshadow="2"
     inkscape:window-width="1314"
     inkscape:window-height="724"
     id="namedview8"
     showgrid="false"
     inkscape:zoom="9.8333333"
     inkscape:cx="12"
     inkscape:cy="12"
     inkscape:window-x="2194"
     inkscape:window-y="126"
     inkscape:window-maximized="0"
     inkscape:current-layer="svg2" />
  <path
     d="M0 0h24v24H0z"
     fill="none"
     id="path4" />
  <path
     d="M 20.731212,13.119247 C 20.77819,12.753779 20.813436,12.38831 20.813436,12 c 0,-0.388309 -0.03525,-0.753778 -0.08222,-1.119246 L 23.209608,8.9963069 C 23.43278,8.8249937 23.49151,8.5166298 23.350558,8.2653701 L 21.001369,4.3137436 C 20.860418,4.0624841 20.543278,3.9711171 20.284867,4.0624841 L 17.360131,5.2045727 C 16.749342,4.7477373 16.09157,4.370848 15.375068,4.0853258 L 14.928723,1.058791 C 14.893481,0.78468969 14.64682,0.57911374 14.353172,0.57911374 l -4.6983723,0 c -0.2936486,0 -0.5403128,0.20557595 -0.5755504,0.47967726 L 8.6329034,4.0853258 C 7.9164019,4.370848 7.2586296,4.7591582 6.6478413,5.2045727 L 3.7231045,4.0624841 c -0.2701565,-0.102788 -0.5755507,0 -0.7165018,0.2512595 L 0.65741649,8.2653701 C 0.50471945,8.5166298 0.57519503,8.8249937 0.79836767,8.9963069 L 3.2767591,10.880754 C 3.2297754,11.246222 3.1945375,11.623111 3.1945375,12 c 0,0.376889 0.035238,0.753779 0.082222,1.119247 L 0.79836767,15.003694 C 0.57519503,15.175007 0.51646531,15.483371 0.65741649,15.73463 l 2.34918621,3.951628 c 0.1409511,0.251258 0.4580913,0.342625 0.7165018,0.251258 l 2.9247368,-1.142089 c 0.6107883,0.456836 1.2685606,0.833726 1.9850621,1.119248 l 0.4463459,3.026535 c 0.035239,0.2741 0.2819018,0.479677 0.5755504,0.479677 l 4.6983723,0 c 0.293648,0 0.540313,-0.205577 0.575551,-0.479677 l 0.446345,-3.026535 c 0.716502,-0.285522 1.374274,-0.673834 1.985063,-1.119248 l 2.924736,1.142089 c 0.270156,0.102788 0.575551,0 0.716502,-0.251258 l 2.349185,-3.951628 c 0.140952,-0.251259 0.08222,-0.559623 -0.14095,-0.730936 l -2.478392,-1.884447 z m -8.727227,2.878065 C 9.7370207,15.997312 7.89291,14.204231 7.89291,12 c 0,-2.2042311 1.8441107,-3.9973102 4.111075,-3.9973102 2.266965,0 4.111077,1.7930791 4.111077,3.9973102 0,2.204231 -1.844112,3.997312 -4.111077,3.997312 z"
     id="path6"
     style="fill:#ffffff;stroke:#ffffff;stroke-width:1.15822685;stroke-opacity:1;fill-opacity:1"
     inkscape:connector-curvature="0" />
</svg>
