<?xml version="1.0" encoding="UTF-8" standalone="no"?>
<svg
   xmlns:dc="http://purl.org/dc/elements/1.1/"
   xmlns:cc="http://creativecommons.org/ns#"
   xmlns:rdf="http://www.w3.org/1999/02/22-rdf-syntax-ns#"
   xmlns:svg="http://www.w3.org/2000/svg"
   xmlns="http://www.w3.org/2000/svg"
   xmlns:sodipodi="http://sodipodi.sourceforge.net/DTD/sodipodi-0.dtd"
   xmlns:inkscape="http://www.inkscape.org/namespaces/inkscape"
   height="24"
   viewBox="0 0 6.4000001 24"
   width="6.4000001"
   id="svg2"
   version="1.1"
   inkscape:version="0.91 r13725"
   sodipodi:docname="ic_scrollbar_black_24px.svg"
   style="fill:#000000">
  <metadata
     id="metadata12">
    <rdf:RDF>
      <cc:Work
         rdf:about="">
        <dc:format>image/svg+xml</dc:format>
        <dc:type
           rdf:resource="http://purl.org/dc/dcmitype/StillImage" />
        <dc:title />
      </cc:Work>
    </rdf:RDF>
  </metadata>
  <defs
     id="defs10">
    <inkscape:perspective
       sodipodi:type="inkscape:persp3d"
       inkscape:vp_x="0 : 12 : 1"
       inkscape:vp_y="0 : 1000 : 0"
       inkscape:vp_z="24 : 12 : 1"
       inkscape:persp3d-origin="12 : 8 : 1"
       id="perspective4169" />
  </defs>
  <sodipodi:namedview
     pagecolor="#ffffff"
     bordercolor="#666666"
     borderopacity="1"
     objecttolerance="10"
     gridtolerance="10"
     guidetolerance="10"
     inkscape:pageopacity="0"
     inkscape:pageshadow="2"
     inkscape:window-width="1204"
     inkscape:window-height="935"
     id="namedview8"
     showgrid="false"
     inkscape:zoom="9.8333333"
     inkscape:cx="8.9282319"
     inkscape:cy="2.7158612"
     inkscape:window-x="638"
     inkscape:window-y="43"
     inkscape:window-maximized="0"
     inkscape:current-layer="svg2"
     fit-margin-top="0"
     fit-margin-left="0"
     fit-margin-right="0"
     fit-margin-bottom="0" />
  <path
     d="M 3.2,0 C 1.431999,0 0,1.4320003 0,3.2 L 0,4.8 0,19.2 0,19.733332 0,20.8 c 0,1.768 1.432,3.2 3.2,3.2 1.7680002,0 3.2000002,-1.432 3.2000002,-3.2 l 0,-1.066668 0,-0.533332 0,-15.0687499 0,-0.9312501 C 6.4000002,1.4320003 4.9680002,0 3.2,0 Z"
     id="path4142"
     inkscape:connector-curvature="0"
     style="fill:#4fa5d5;fill-opacity:1" />
  <path
     inkscape:connector-curvature="0"
     d="M 5.1125002,14.9125 3.2,16.820833 1.2875,14.9125 0.7,15.5 3.2,18 5.7000002,15.5 Z"
     id="path4-1"
     style="fill:#f9f9f9" />
  <path
     inkscape:connector-curvature="0"
     d="M 1.287499,9 3.199999,7.091667 5.1125002,9 l 0.587499,-0.5875 -2.5000002,-2.5 -2.5,2.5 z"
     id="path4-1-4"
     style="fill:#f9f9f9" />
</svg>
