<?xml version="1.0" encoding="UTF-8" standalone="no"?>
<!DOCTYPE svg PUBLIC "-//W3C//DTD SVG 1.1//EN" "http://www.w3.org/Graphics/SVG/1.1/DTD/svg11.dtd">
<!-- Généré par Microsoft Visio, SVG Export architecture.svg Page-1 -->
<svg xmlns="http://www.w3.org/2000/svg" xmlns:xlink="http://www.w3.org/1999/xlink" xmlns:ev="http://www.w3.org/2001/xml-events"
		xmlns:v="http://schemas.microsoft.com/visio/2003/SVGExtensions/" width="11.6929in" height="8.26772in"
		viewBox="0 0 841.89 595.276" xml:space="preserve" color-interpolation-filters="sRGB" class="st22">
	<v:documentProperties v:langID="1036" v:metric="true" v:viewMarkup="false">
		<v:userDefs>
			<v:ud v:nameU="msvSubprocessMaster" v:prompt="" v:val="VT4(Rectangle)"/>
			<v:ud v:nameU="msvNoAutoConnect" v:val="VT0(1):26"/>
		</v:userDefs>
	</v:documentProperties>

	<style type="text/css">
	<![CDATA[
		.st1 {visibility:visible}
		.st2 {fill:#5b9bd5;fill-opacity:0.25;filter:url(#filter_2);stroke:#5b9bd5;stroke-opacity:0.25}
		.st3 {fill:url(#grad0-7);stroke:#40709c;stroke-width:0.75}
		.st4 {fill:#feffff;font-family:Calibri;font-size:0.833336em}
		.st5 {fill:#41719c;fill-opacity:0.25;filter:url(#filter_2);stroke:#41719c;stroke-opacity:0.25}
		.st6 {fill:url(#grad0-15);stroke:#2d5171;stroke-width:0.75}
		.st7 {fill:#fec000;fill-opacity:0.25;filter:url(#filter_2);stroke:#fec000;stroke-opacity:0.25}
		.st8 {fill:#fec000;stroke:#ba8c00;stroke-width:0.75}
		.st9 {fill:#ffffff;font-family:Calibri;font-size:0.833336em}
		.st10 {fill:#ed7d31;fill-opacity:0.25;filter:url(#filter_2)}
		.st11 {fill:none;filter:url(#filter_2);stroke:#ed7d31;stroke-opacity:0.25}
		.st12 {fill:url(#grad0-40)}
		.st13 {stroke:#ae5a21;stroke-width:0.75}
		.st14 {font-size:1em}
		.st15 {fill:#5b9bd5;fill-opacity:0.22;filter:url(#filter_2);stroke:#5b9bd5;stroke-opacity:0.22}
		.st16 {fill:#5b9bd5;stroke:#c7c8c8;stroke-width:0.25}
		.st17 {fill:#70ad47;fill-opacity:0.25;filter:url(#filter_2);stroke:#70ad47;stroke-opacity:0.25}
		.st18 {fill:url(#grad0-69);stroke:#507e31;stroke-width:0.75}
		.st19 {marker-end:url(#mrkr4-82);stroke:#5b9bd5;stroke-linecap:round;stroke-linejoin:round;stroke-width:1}
		.st20 {fill:#5b9bd5;fill-opacity:1;stroke:#5b9bd5;stroke-opacity:1;stroke-width:0.28409090909091}
		.st21 {marker-end:url(#mrkr4-82);stroke:#5b9bd5;stroke-dasharray:3,3;stroke-linecap:round;stroke-linejoin:round;stroke-width:1}
		.st22 {fill:none;fill-rule:evenodd;font-size:12px;overflow:visible;stroke-linecap:square;stroke-miterlimit:3}
	]]>
	</style>

	<defs id="Patterns_And_Gradients">
		<linearGradient id="grad0-7" x1="0" y1="0" x2="1" y2="0" gradientTransform="rotate(250 0.5 0.5)">
			<stop offset="0" stop-color="#4f87bb" stop-opacity="1"/>
			<stop offset="0.48" stop-color="#4f87bb" stop-opacity="1"/>
			<stop offset="0.82" stop-color="#5b9bd5" stop-opacity="1"/>
		</linearGradient>
		<linearGradient id="grad0-15" x1="0" y1="0" x2="1" y2="0" gradientTransform="rotate(250 0.5 0.5)">
			<stop offset="0" stop-color="#386288" stop-opacity="1"/>
			<stop offset="0.48" stop-color="#386288" stop-opacity="1"/>
			<stop offset="0.82" stop-color="#41719c" stop-opacity="1"/>
		</linearGradient>
		<linearGradient id="grad0-40" x1="0" y1="0" x2="1" y2="0" gradientTransform="rotate(250 0.5 0.5)">
			<stop offset="0" stop-color="#d06d29" stop-opacity="1"/>
			<stop offset="0.48" stop-color="#d06d29" stop-opacity="1"/>
			<stop offset="0.82" stop-color="#ed7d31" stop-opacity="1"/>
		</linearGradient>
		<linearGradient id="grad0-69" x1="0" y1="0" x2="1" y2="0" gradientTransform="rotate(250 0.5 0.5)">
			<stop offset="0" stop-color="#61973d" stop-opacity="1"/>
			<stop offset="0.48" stop-color="#61973d" stop-opacity="1"/>
			<stop offset="0.82" stop-color="#70ad47" stop-opacity="1"/>
		</linearGradient>
	</defs>
	<defs id="Markers">
		<g id="lend4">
			<path d="M 2 1 L 0 0 L 2 -1 L 2 1 " style="stroke:none"/>
		</g>
		<marker id="mrkr4-82" class="st20" v:arrowType="4" v:arrowSize="2" v:setback="7.04" refX="-7.04" orient="auto"
				markerUnits="strokeWidth" overflow="visible">
			<use xlink:href="#lend4" transform="scale(-3.52,-3.52) "/>
		</marker>
	</defs>
	<defs id="Filters">
		<filter id="filter_2">
			<feGaussianBlur stdDeviation="2"/>
		</filter>
	</defs>
	<g v:mID="0" v:index="1" v:groupContext="foregroundPage">
		<v:userDefs>
			<v:ud v:nameU="msvThemeOrder" v:val="VT0(0):26"/>
		</v:userDefs>
		<title>Page 1</title>
		<v:pageProperties v:drawingScale="0.0393701" v:pageScale="0.0393701" v:drawingUnits="24" v:shadowOffsetX="8.50394"
				v:shadowOffsetY="-8.50394"/>
		<v:layer v:name="Diagramme de flux" v:index="0"/>
		<v:layer v:name="Lien" v:index="1"/>
		<g id="shape62-1" v:mID="62" v:groupContext="shape" transform="translate(447.874,-186.644)">
			<title>Rectangle à coins arrondis.62</title>
			<desc>Service</desc>
			<v:userDefs>
				<v:ud v:nameU="CTypeTopLeftSnip" v:prompt="" v:val="VT0(0):5"/>
				<v:ud v:nameU="CTypeTopRightSnip" v:prompt="" v:val="VT0(0):5"/>
				<v:ud v:nameU="CTypeBotLeftSnip" v:prompt="" v:val="VT0(0):5"/>
				<v:ud v:nameU="CTypeBotRightSnip" v:prompt="" v:val="VT0(0):5"/>
				<v:ud v:nameU="CornerLockHoriz" v:prompt="" v:val="VT0(1):5"/>
				<v:ud v:nameU="CornerLockVert" v:prompt="" v:val="VT0(1):5"/>
				<v:ud v:nameU="CornerLockDiag" v:prompt="" v:val="VT0(0):5"/>
				<v:ud v:nameU="TopLeftOffset" v:prompt="" v:val="VT0(0.15748031496063):24"/>
				<v:ud v:nameU="TopRightOffset" v:prompt="" v:val="VT0(0.15748031496063):24"/>
				<v:ud v:nameU="BotLeftOffset" v:prompt="" v:val="VT0(0.15748031496063):24"/>
				<v:ud v:nameU="BotRightOffset" v:prompt="" v:val="VT0(0.15748031496063):24"/>
				<v:ud v:nameU="visVersion" v:prompt="" v:val="VT0(15):26"/>
				<v:ud v:nameU="TopLeftOffset" v:prompt="" v:val="VT0(0.17322834645669):1"/>
				<v:ud v:nameU="TopRightOffset" v:prompt="" v:val="VT0(0.17322834645669):1"/>
				<v:ud v:nameU="BotLeftOffset" v:prompt="" v:val="VT0(0.17322834645669):1"/>
				<v:ud v:nameU="BotRightOffset" v:prompt="" v:val="VT0(0.17322834645669):1"/>
			</v:userDefs>
			<v:textBlock v:margins="rect(4,4,4,4)" v:tabSpace="42.5197" v:verticalAlign="0"/>
			<v:textRect cx="62.3622" cy="565.512" width="124.73" height="59.5276"/>
			<g id="shadow62-2" v:groupContext="shadow" v:shadowOffsetX="0.345598" v:shadowOffsetY="-1.97279" v:shadowType="1"
					transform="matrix(1,0,0,1,0.345598,1.97279)" class="st1">
				<path d="M12.47 595.28 L112.25 595.28 A12.4722 12.4722 -180 0 0 124.72 582.8 L124.72 548.22 A12.4722 12.4722 -180
							 0 0 112.25 535.75 L12.47 535.75 A12.4722 12.4722 -180 0 0 0 548.22 L0 582.8 A12.4722 12.4722 -180 0
							 0 12.47 595.28 Z" class="st2"/>
			</g>
			<path d="M12.47 595.28 L112.25 595.28 A12.4722 12.4722 -180 0 0 124.72 582.8 L124.72 548.22 A12.4722 12.4722 -180 0 0
						 112.25 535.75 L12.47 535.75 A12.4722 12.4722 -180 0 0 0 548.22 L0 582.8 A12.4722 12.4722 -180 0 0 12.47
						 595.28 Z" class="st3"/>
			<text x="47.83" y="548.75" class="st4" v:langID="1036"><v:paragraph v:horizAlign="1"/><v:tabList/>Service</text>		</g>
		<g id="shape4-9" v:mID="4" v:groupContext="shape" transform="translate(272.126,-403.713)">
			<title>Rectangle à coins arrondis.4</title>
			<desc>ViewModel</desc>
			<v:userDefs>
				<v:ud v:nameU="CTypeTopLeftSnip" v:prompt="" v:val="VT0(0):5"/>
				<v:ud v:nameU="CTypeTopRightSnip" v:prompt="" v:val="VT0(0):5"/>
				<v:ud v:nameU="CTypeBotLeftSnip" v:prompt="" v:val="VT0(0):5"/>
				<v:ud v:nameU="CTypeBotRightSnip" v:prompt="" v:val="VT0(0):5"/>
				<v:ud v:nameU="CornerLockHoriz" v:prompt="" v:val="VT0(1):5"/>
				<v:ud v:nameU="CornerLockVert" v:prompt="" v:val="VT0(1):5"/>
				<v:ud v:nameU="CornerLockDiag" v:prompt="" v:val="VT0(0):5"/>
				<v:ud v:nameU="TopLeftOffset" v:prompt="" v:val="VT0(0.15748031496063):24"/>
				<v:ud v:nameU="TopRightOffset" v:prompt="" v:val="VT0(0.15748031496063):24"/>
				<v:ud v:nameU="BotLeftOffset" v:prompt="" v:val="VT0(0.15748031496063):24"/>
				<v:ud v:nameU="BotRightOffset" v:prompt="" v:val="VT0(0.15748031496063):24"/>
				<v:ud v:nameU="visVersion" v:prompt="" v:val="VT0(15):26"/>
				<v:ud v:nameU="TopLeftOffset" v:prompt="" v:val="VT0(0.17322834645669):1"/>
				<v:ud v:nameU="TopRightOffset" v:prompt="" v:val="VT0(0.17322834645669):1"/>
				<v:ud v:nameU="BotLeftOffset" v:prompt="" v:val="VT0(0.17322834645669):1"/>
				<v:ud v:nameU="BotRightOffset" v:prompt="" v:val="VT0(0.17322834645669):1"/>
			</v:userDefs>
			<v:textBlock v:margins="rect(4,4,4,4)" v:tabSpace="42.5197" v:verticalAlign="0"/>
			<v:textRect cx="62.3622" cy="565.512" width="124.73" height="59.5276"/>
			<g id="shadow4-10" v:groupContext="shadow" v:shadowOffsetX="0.345598" v:shadowOffsetY="-1.97279" v:shadowType="1"
					transform="matrix(1,0,0,1,0.345598,1.97279)" class="st1">
				<path d="M12.47 595.28 L112.25 595.28 A12.4722 12.4722 -180 0 0 124.72 582.8 L124.72 548.22 A12.4722 12.4722 -180
							 0 0 112.25 535.75 L12.47 535.75 A12.4722 12.4722 -180 0 0 0 548.22 L0 582.8 A12.4722 12.4722 -180 0
							 0 12.47 595.28 Z" class="st5"/>
			</g>
			<path d="M12.47 595.28 L112.25 595.28 A12.4722 12.4722 -180 0 0 124.72 582.8 L124.72 548.22 A12.4722 12.4722 -180 0 0
						 112.25 535.75 L12.47 535.75 A12.4722 12.4722 -180 0 0 0 548.22 L0 582.8 A12.4722 12.4722 -180 0 0 12.47
						 595.28 Z" class="st6"/>
			<text x="39.14" y="548.75" class="st4" v:langID="1036"><v:paragraph v:horizAlign="1"/><v:tabList/>ViewModel</text>		</g>
		<g id="group24-17" transform="translate(118.346,-113.386)" v:mID="24" v:groupContext="group">
			<v:custProps>
				<v:cp v:nameU="AssetNumber" v:lbl="Numéro d’inventaire" v:prompt="" v:type="0" v:format="" v:sortKey="Asset"
						v:invis="false" v:ask="false" v:langID="1036" v:cal="0"/>
				<v:cp v:nameU="SerialNumber" v:lbl="Numéro de série" v:prompt="" v:type="0" v:format="" v:sortKey="Asset"
						v:invis="false" v:ask="false" v:langID="1036" v:cal="0"/>
				<v:cp v:nameU="Location" v:lbl="Emplacement" v:prompt="" v:type="0" v:format="" v:sortKey="Asset" v:invis="false"
						v:ask="false" v:langID="1036" v:cal="0"/>
				<v:cp v:nameU="Building" v:lbl="Bâtiment" v:prompt="" v:type="0" v:format="" v:sortKey="Asset" v:invis="false"
						v:ask="false" v:langID="1036" v:cal="0"/>
				<v:cp v:nameU="Room" v:lbl="Salle" v:prompt="" v:type="0" v:format="" v:sortKey="Asset" v:invis="false"
						v:ask="false" v:langID="1036" v:cal="0"/>
				<v:cp v:nameU="Manufacturer" v:lbl="Fabricant" v:prompt="" v:type="0" v:format="" v:sortKey="Equipment"
						v:invis="false" v:ask="false" v:langID="1036" v:cal="0"/>
				<v:cp v:nameU="ProductNumber" v:lbl="Numéro de produit" v:prompt="" v:type="0" v:format="" v:sortKey="Equipment"
						v:invis="false" v:ask="false" v:langID="1036" v:cal="0"/>
				<v:cp v:nameU="PartNumber" v:lbl="Numéro de référence" v:prompt="" v:type="0" v:format="" v:sortKey="Equipment"
						v:invis="false" v:ask="false" v:langID="1036" v:cal="0"/>
				<v:cp v:nameU="ProductDescription" v:lbl="Description du produit" v:prompt="" v:type="0" v:format=""
						v:sortKey="Equipment" v:invis="false" v:ask="false" v:langID="1036" v:cal="0"/>
				<v:cp v:nameU="NetworkName" v:lbl="Nom de réseau" v:prompt="" v:type="0" v:format="" v:sortKey="Network"
						v:invis="false" v:ask="false" v:langID="1036" v:cal="0"/>
				<v:cp v:nameU="IPAddress" v:lbl="Adresse IP" v:prompt="" v:type="0" v:format="" v:sortKey="Network" v:invis="false"
						v:ask="false" v:langID="1036" v:cal="0"/>
				<v:cp v:nameU="SubnetMask" v:lbl="Masque de sous-réseau" v:prompt="" v:type="0" v:format="" v:sortKey="Network"
						v:invis="false" v:ask="false" v:langID="1036" v:cal="0"/>
				<v:cp v:nameU="AdminInterface" v:lbl="Interface d’administration" v:prompt="" v:type="0" v:format=""
						v:sortKey="Network" v:invis="false" v:ask="false" v:langID="1036" v:cal="0"/>
				<v:cp v:nameU="NumberofPorts" v:lbl="Nombre de ports" v:prompt="" v:type="0" v:format="" v:sortKey="Network"
						v:invis="false" v:ask="false" v:langID="1036" v:cal="0"/>
				<v:cp v:nameU="CommunityString" v:lbl="Chaîne de communauté" v:prompt="" v:type="0" v:format="" v:sortKey="Network"
						v:invis="false" v:ask="false" v:langID="1036" v:cal="0"/>
				<v:cp v:nameU="NetworkDescription" v:lbl="Description de réseau" v:prompt="" v:type="0" v:format=""
						v:sortKey="Network" v:invis="false" v:ask="false" v:langID="1036" v:cal="0"/>
				<v:cp v:nameU="MACAddress" v:lbl="Adresse MAC" v:prompt="" v:type="0" v:format="" v:sortKey="Network"
						v:invis="false" v:ask="false" v:langID="1036" v:cal="0"/>
				<v:cp v:nameU="ShapeClass" v:lbl="ShapeClass" v:prompt="" v:type="0" v:format="" v:sortKey="" v:invis="true"
						v:ask="false" v:langID="1036" v:cal="0" v:val="VT4(Connectivité)"/>
				<v:cp v:nameU="ShapeType" v:lbl="ShapeType" v:prompt="" v:type="0" v:format="" v:sortKey="" v:invis="true"
						v:ask="false" v:langID="1036" v:cal="0" v:val="VT4(Conceptuel)"/>
				<v:cp v:nameU="SubShapeType" v:lbl="SubShapeType" v:prompt="" v:type="0" v:format="" v:sortKey="" v:invis="true"
						v:ask="false" v:langID="1036" v:cal="0" v:val="VT4(Base de données)"/>
			</v:custProps>
			<v:userDefs>
				<v:ud v:nameU="visVersion" v:prompt="" v:val="VT0(15):26"/>
				<v:ud v:nameU="ShapeClass" v:prompt="" v:val="VT0(5):26"/>
				<v:ud v:nameU="SolSH" v:prompt="" v:val="VT15({BF0433D9-CD73-4EB5-8390-8653BE590246}):41"/>
				<v:ud v:nameU="visLegendShape" v:prompt="" v:val="VT0(2):26"/>
			</v:userDefs>
			<title>Base de données.14</title>
			<desc>SQLite</desc>
			<g id="shape25-18" v:mID="25" v:groupContext="shape" transform="translate(4.14814,0)">
				<title>Feuille.25</title>
				<g id="shadow25-19" v:groupContext="shadow" v:shadowOffsetX="0.345598" v:shadowOffsetY="-1.97279" v:shadowType="1"
						transform="matrix(1,0,0,1,0.345598,1.97279)" class="st1">
					<path d="M0 551.31 L0 587.45 A39.0802 7.8253 -180 1 0 78.16 587.45 L78.16 551.23 A39.0802 7.8253 0 0 1 0 551.31
								 ZM78.16 551.23 A39.0802 7.8253 -180 1 0 0 551.23 A39.0802 7.8253 -180 1 0 78.16 551.23 Z"
							class="st7"/>
				</g>
				<path d="M0 551.31 L0 587.45 A39.0802 7.8253 -180 1 0 78.16 587.45 L78.16 551.23 A39.0802 7.8253 0 0 1 0 551.31 ZM78.16
							 551.23 A39.0802 7.8253 -180 1 0 0 551.23 A39.0802 7.8253 -180 1 0 78.16 551.23 Z" class="st8"/>
			</g>
			<g id="shape24-23" v:mID="24" v:groupContext="groupContent">
				<v:textBlock v:margins="rect(4,4,4,4)" v:tabSpace="42.5197"/>
				<v:textRect cx="43.2283" cy="574.526" width="36.42" height="20.0036"/>
				<g id="shadow24-24" v:groupContext="shadow" v:shadowOffsetX="0.345598" v:shadowOffsetY="-1.97279" v:shadowType="1"
						transform="matrix(1,0,0,1,0.345598,1.97279)" class="st1"/>
				<text x="30.15" y="577.53" class="st9" v:langID="1036"><v:paragraph v:horizAlign="1"/><v:tabList/>SQLite</text>			</g>
		</g>
		<g id="shape47-26" v:mID="47" v:groupContext="shape" transform="translate(467.397,-108.337)">
			<title>Nuage.28</title>
			<desc>Exchanges API</desc>
			<v:userDefs>
				<v:ud v:nameU="visVersion" v:prompt="" v:val="VT0(15):26"/>
			</v:userDefs>
			<v:textBlock v:margins="rect(4,4,4,4)" v:tabSpace="42.5197"/>
			<v:textRect cx="51.631" cy="568.169" width="103.27" height="54.2126"/>
			<g id="shadow47-27" v:groupContext="shadow" v:shadowOffsetX="0.345598" v:shadowOffsetY="-1.97279" v:shadowType="1"
					transform="matrix(1,0,0,1,0.345598,1.97279)" class="st1">
				<path d="M5.08 573.09 A8.15476 7.20288 0 0 1 8.99 559.25 A16.5369 14.6066 0 0 1 32.99 547.57 A18.989 16.7724 0 0
							 1 53.55 544.98 A11.9078 10.5178 0 0 1 71.18 544.11 A13.5572 11.9747 0 0 1 92.73 548.44 A9.6938 8.56198
							 0 0 1 100.56 560.55 A12.007 10.6051 0 0 1 90.77 577.85 A15.1478 13.3792 0 0 1 69.23 586.49 A17.8606
							 15.7752 0 0 1 39.85 589.96 A22.6406 19.9971 0 0 1 14.38 586.49 A8.93217 7.88955 0 0 1 5.08 573.09 Z"
						class="st10"/>
				<path d="M5.08 573.09 A8.15476 7.20288 0 0 1 8.99 559.25 A16.5369 14.6066 0 0 1 32.99 547.57 A18.989 16.7724 0 0
							 1 53.55 544.98 A11.9078 10.5178 0 0 1 71.18 544.11 A13.5572 11.9747 0 0 1 92.73 548.44 A9.6938 8.56198
							 0 0 1 100.56 560.55 A12.007 10.6051 0 0 1 90.77 577.85 A15.1478 13.3792 0 0 1 69.23 586.49 A17.8606
							 15.7752 0 0 1 39.85 589.96 A22.6406 19.9971 0 0 1 14.38 586.49 A8.93217 7.88955 0 0 1 5.08 573.09"
						class="st11"/>
				<path d="M10.46 573.52 A8.13222 7.18298 0 0 1 5.08 573.09" class="st11"/>
				<path d="M38.37 587.79 A8.16762 7.21424 -180 0 0 39.85 589.96" class="st11"/>
				<path d="M69.96 583.9 A6.59326 5.82365 0 0 1 69.23 586.49" class="st11"/>
				<path d="M84.89 570.92 A6.91846 6.1109 0 0 1 90.77 577.85" class="st11"/>
				<path d="M97.62 563.14 A6.31624 5.57897 -180 0 0 100.56 560.55" class="st11"/>
				<path d="M35.92 549.3 A9.74023 8.603 -180 0 0 32.99 547.57" class="st11"/>
			</g>
			<path d="M5.08 573.09 A8.15476 7.20288 0 0 1 8.99 559.25 A16.5369 14.6066 0 0 1 32.99 547.57 A18.989 16.7724 0 0 1 53.55
						 544.98 A11.9078 10.5178 0 0 1 71.18 544.11 A13.5572 11.9747 0 0 1 92.73 548.44 A9.6938 8.56198 0 0 1 100.56
						 560.55 A12.007 10.6051 0 0 1 90.77 577.85 A15.1478 13.3792 0 0 1 69.23 586.49 A17.8606 15.7752 0 0 1 39.85
						 589.96 A22.6406 19.9971 0 0 1 14.38 586.49 A8.93217 7.88955 0 0 1 5.08 573.09 Z" class="st12"/>
			<path d="M5.08 573.09 A8.15476 7.20288 0 0 1 8.99 559.25 A16.5369 14.6066 0 0 1 32.99 547.57 A18.989 16.7724 0 0 1 53.55
						 544.98 A11.9078 10.5178 0 0 1 71.18 544.11 A13.5572 11.9747 0 0 1 92.73 548.44 A9.6938 8.56198 0 0 1 100.56
						 560.55 A12.007 10.6051 0 0 1 90.77 577.85 A15.1478 13.3792 0 0 1 69.23 586.49 A17.8606 15.7752 0 0 1 39.85
						 589.96 A22.6406 19.9971 0 0 1 14.38 586.49 A8.93217 7.88955 0 0 1 5.08 573.09" class="st13"/>
			<path d="M10.46 573.52 A8.13222 7.18298 0 0 1 5.08 573.09" class="st13"/>
			<path d="M38.37 587.79 A8.16762 7.21424 -180 0 0 39.85 589.96" class="st13"/>
			<path d="M69.96 583.9 A6.59326 5.82365 0 0 1 69.23 586.49" class="st13"/>
			<path d="M84.89 570.92 A6.91846 6.1109 0 0 1 90.77 577.85" class="st13"/>
			<path d="M97.62 563.14 A6.31624 5.57897 -180 0 0 100.56 560.55" class="st13"/>
			<path d="M35.92 549.3 A9.74023 8.603 -180 0 0 32.99 547.57" class="st13"/>
			<text x="30.46" y="565.17" class="st4" v:langID="1036"><v:paragraph v:horizAlign="1"/><v:tabList/>Exchanges<v:newlineChar/><tspan
						x="44.9" dy="1.2em" class="st14">API</tspan></text>		</g>
		<g id="shape48-50" v:mID="48" v:groupContext="shape" transform="translate(99.2126,-209.232)">
			<title>Rectangle à coins arrondis.48</title>
			<desc>Room</desc>
			<v:userDefs>
				<v:ud v:nameU="CTypeTopLeftSnip" v:prompt="" v:val="VT0(0):5"/>
				<v:ud v:nameU="CTypeTopRightSnip" v:prompt="" v:val="VT0(0):5"/>
				<v:ud v:nameU="CTypeBotLeftSnip" v:prompt="" v:val="VT0(0):5"/>
				<v:ud v:nameU="CTypeBotRightSnip" v:prompt="" v:val="VT0(0):5"/>
				<v:ud v:nameU="CornerLockHoriz" v:prompt="" v:val="VT0(1):5"/>
				<v:ud v:nameU="CornerLockVert" v:prompt="" v:val="VT0(1):5"/>
				<v:ud v:nameU="CornerLockDiag" v:prompt="" v:val="VT0(0):5"/>
				<v:ud v:nameU="TopLeftOffset" v:prompt="" v:val="VT0(0.15748031496063):24"/>
				<v:ud v:nameU="TopRightOffset" v:prompt="" v:val="VT0(0.15748031496063):24"/>
				<v:ud v:nameU="BotLeftOffset" v:prompt="" v:val="VT0(0.15748031496063):24"/>
				<v:ud v:nameU="BotRightOffset" v:prompt="" v:val="VT0(0.15748031496063):24"/>
				<v:ud v:nameU="visVersion" v:prompt="" v:val="VT0(15):26"/>
				<v:ud v:nameU="TopLeftOffset" v:prompt="" v:val="VT0(0.17322834645669):1"/>
				<v:ud v:nameU="TopRightOffset" v:prompt="" v:val="VT0(0.17322834645669):1"/>
				<v:ud v:nameU="BotLeftOffset" v:prompt="" v:val="VT0(0.17322834645669):1"/>
				<v:ud v:nameU="BotRightOffset" v:prompt="" v:val="VT0(0.17322834645669):1"/>
			</v:userDefs>
			<v:textBlock v:margins="rect(4,4,4,4)" v:tabSpace="42.5197" v:verticalAlign="0"/>
			<v:textRect cx="62.3622" cy="549.39" width="124.73" height="91.7717"/>
			<g id="shadow48-51" v:groupContext="shadow" v:shadowOffsetX="0.345598" v:shadowOffsetY="-1.97279" v:shadowType="1"
					transform="matrix(1,0,0,1,0.345598,1.97279)" class="st1">
				<path d="M12.47 595.28 L112.25 595.28 A12.4722 12.4722 -180 0 0 124.72 582.8 L124.72 515.98 A12.4722 12.4722 -180
							 0 0 112.25 503.5 L12.47 503.5 A12.4722 12.4722 -180 0 0 0 515.98 L0 582.8 A12.4722 12.4722 -180 0 0
							 12.47 595.28 Z" class="st2"/>
			</g>
			<path d="M12.47 595.28 L112.25 595.28 A12.4722 12.4722 -180 0 0 124.72 582.8 L124.72 515.98 A12.4722 12.4722 -180 0 0
						 112.25 503.5 L12.47 503.5 A12.4722 12.4722 -180 0 0 0 515.98 L0 582.8 A12.4722 12.4722 -180 0 0 12.47 595.28
						 Z" class="st3"/>
			<text x="50.38" y="516.5" class="st4" v:langID="1036"><v:paragraph v:horizAlign="1"/><v:tabList/>Room</text>		</g>
		<g id="shape49-57" v:mID="49" v:groupContext="shape" transform="translate(114.803,-218.445)">
			<title>Rectangle à coins arrondis.49</title>
			<desc>Entity</desc>
			<v:userDefs>
				<v:ud v:nameU="CTypeTopLeftSnip" v:prompt="" v:val="VT0(0):5"/>
				<v:ud v:nameU="CTypeTopRightSnip" v:prompt="" v:val="VT0(0):5"/>
				<v:ud v:nameU="CTypeBotLeftSnip" v:prompt="" v:val="VT0(0):5"/>
				<v:ud v:nameU="CTypeBotRightSnip" v:prompt="" v:val="VT0(0):5"/>
				<v:ud v:nameU="CornerLockHoriz" v:prompt="" v:val="VT0(1):5"/>
				<v:ud v:nameU="CornerLockVert" v:prompt="" v:val="VT0(1):5"/>
				<v:ud v:nameU="CornerLockDiag" v:prompt="" v:val="VT0(0):5"/>
				<v:ud v:nameU="TopLeftOffset" v:prompt="" v:val="VT0(0.15748031496063):24"/>
				<v:ud v:nameU="TopRightOffset" v:prompt="" v:val="VT0(0.15748031496063):24"/>
				<v:ud v:nameU="BotLeftOffset" v:prompt="" v:val="VT0(0.15748031496063):24"/>
				<v:ud v:nameU="BotRightOffset" v:prompt="" v:val="VT0(0.15748031496063):24"/>
				<v:ud v:nameU="visVersion" v:prompt="" v:val="VT0(15):26"/>
				<v:ud v:nameU="TopLeftOffset" v:prompt="" v:val="VT0(0.12992125984252):1"/>
				<v:ud v:nameU="TopRightOffset" v:prompt="" v:val="VT0(0.12992125984252):1"/>
				<v:ud v:nameU="BotLeftOffset" v:prompt="" v:val="VT0(0.12992125984252):1"/>
				<v:ud v:nameU="BotRightOffset" v:prompt="" v:val="VT0(0.12992125984252):1"/>
			</v:userDefs>
			<v:textBlock v:margins="rect(4,4,4,4)" v:tabSpace="42.5197"/>
			<v:textRect cx="46.7717" cy="583.937" width="93.55" height="22.6772"/>
			<g id="shadow49-58" v:groupContext="shadow" v:shadowOffsetX="0.345598" v:shadowOffsetY="-1.97279" v:shadowType="1"
					transform="matrix(1,0,0,1,0.345598,1.97279)" class="st1">
				<path d="M9.35 595.28 L84.19 595.28 A9.35418 9.35418 -180 0 0 93.54 585.92 L93.54 581.95 A9.35418 9.35418 -180 0
							 0 84.19 572.6 L9.35 572.6 A9.35418 9.35418 -180 0 0 -0 581.95 L0 585.92 A9.35418 9.35418 -180 0 0 9.35
							 595.28 Z" class="st15"/>
			</g>
			<path d="M9.35 595.28 L84.19 595.28 A9.35418 9.35418 -180 0 0 93.54 585.92 L93.54 581.95 A9.35418 9.35418 -180 0 0 84.19
						 572.6 L9.35 572.6 A9.35418 9.35418 -180 0 0 -0 581.95 L0 585.92 A9.35418 9.35418 -180 0 0 9.35 595.28 Z"
					class="st16"/>
			<text x="34.94" y="586.94" class="st4" v:langID="1036"><v:paragraph v:horizAlign="1"/><v:tabList/>Entity</text>		</g>
		<g id="shape63-63" v:mID="63" v:groupContext="shape" transform="translate(272.126,-336.801)">
			<title>Rectangle à coins arrondis.63</title>
			<desc>Repository</desc>
			<v:userDefs>
				<v:ud v:nameU="CTypeTopLeftSnip" v:prompt="" v:val="VT0(0):5"/>
				<v:ud v:nameU="CTypeTopRightSnip" v:prompt="" v:val="VT0(0):5"/>
				<v:ud v:nameU="CTypeBotLeftSnip" v:prompt="" v:val="VT0(0):5"/>
				<v:ud v:nameU="CTypeBotRightSnip" v:prompt="" v:val="VT0(0):5"/>
				<v:ud v:nameU="CornerLockHoriz" v:prompt="" v:val="VT0(1):5"/>
				<v:ud v:nameU="CornerLockVert" v:prompt="" v:val="VT0(1):5"/>
				<v:ud v:nameU="CornerLockDiag" v:prompt="" v:val="VT0(0):5"/>
				<v:ud v:nameU="TopLeftOffset" v:prompt="" v:val="VT0(0.15748031496063):24"/>
				<v:ud v:nameU="TopRightOffset" v:prompt="" v:val="VT0(0.15748031496063):24"/>
				<v:ud v:nameU="BotLeftOffset" v:prompt="" v:val="VT0(0.15748031496063):24"/>
				<v:ud v:nameU="BotRightOffset" v:prompt="" v:val="VT0(0.15748031496063):24"/>
				<v:ud v:nameU="visVersion" v:prompt="" v:val="VT0(15):26"/>
				<v:ud v:nameU="TopLeftOffset" v:prompt="" v:val="VT0(0.17322834645669):1"/>
				<v:ud v:nameU="TopRightOffset" v:prompt="" v:val="VT0(0.17322834645669):1"/>
				<v:ud v:nameU="BotLeftOffset" v:prompt="" v:val="VT0(0.17322834645669):1"/>
				<v:ud v:nameU="BotRightOffset" v:prompt="" v:val="VT0(0.17322834645669):1"/>
			</v:userDefs>
			<v:textBlock v:margins="rect(4,4,4,4)" v:tabSpace="42.5197"/>
			<v:textRect cx="62.3622" cy="574.016" width="124.73" height="42.5197"/>
			<g id="shadow63-64" v:groupContext="shadow" v:shadowOffsetX="0.345598" v:shadowOffsetY="-1.97279" v:shadowType="1"
					transform="matrix(1,0,0,1,0.345598,1.97279)" class="st1">
				<path d="M12.47 595.28 L112.25 595.28 A12.4722 12.4722 -180 0 0 124.72 582.8 L124.72 565.23 A12.4722 12.4722 -180
							 0 0 112.25 552.76 L12.47 552.76 A12.4722 12.4722 -180 0 0 -0 565.23 L0 582.8 A12.4722 12.4722 -180 0
							 0 12.47 595.28 Z" class="st17"/>
			</g>
			<path d="M12.47 595.28 L112.25 595.28 A12.4722 12.4722 -180 0 0 124.72 582.8 L124.72 565.23 A12.4722 12.4722 -180 0 0
						 112.25 552.76 L12.47 552.76 A12.4722 12.4722 -180 0 0 -0 565.23 L0 582.8 A12.4722 12.4722 -180 0 0 12.47
						 595.28 Z" class="st18"/>
			<text x="40.48" y="577.02" class="st4" v:langID="1036"><v:paragraph v:horizAlign="1"/><v:tabList/>Repository</text>		</g>
		<g id="shape64-71" v:mID="64" v:groupContext="shape" transform="translate(287.717,-412.926)">
			<title>Rectangle à coins arrondis.64</title>
			<desc>LiveData / Observer</desc>
			<v:userDefs>
				<v:ud v:nameU="CTypeTopLeftSnip" v:prompt="" v:val="VT0(0):5"/>
				<v:ud v:nameU="CTypeTopRightSnip" v:prompt="" v:val="VT0(0):5"/>
				<v:ud v:nameU="CTypeBotLeftSnip" v:prompt="" v:val="VT0(0):5"/>
				<v:ud v:nameU="CTypeBotRightSnip" v:prompt="" v:val="VT0(0):5"/>
				<v:ud v:nameU="CornerLockHoriz" v:prompt="" v:val="VT0(1):5"/>
				<v:ud v:nameU="CornerLockVert" v:prompt="" v:val="VT0(1):5"/>
				<v:ud v:nameU="CornerLockDiag" v:prompt="" v:val="VT0(0):5"/>
				<v:ud v:nameU="TopLeftOffset" v:prompt="" v:val="VT0(0.15748031496063):24"/>
				<v:ud v:nameU="TopRightOffset" v:prompt="" v:val="VT0(0.15748031496063):24"/>
				<v:ud v:nameU="BotLeftOffset" v:prompt="" v:val="VT0(0.15748031496063):24"/>
				<v:ud v:nameU="BotRightOffset" v:prompt="" v:val="VT0(0.15748031496063):24"/>
				<v:ud v:nameU="visVersion" v:prompt="" v:val="VT0(15):26"/>
				<v:ud v:nameU="TopLeftOffset" v:prompt="" v:val="VT0(0.12992125984252):1"/>
				<v:ud v:nameU="TopRightOffset" v:prompt="" v:val="VT0(0.12992125984252):1"/>
				<v:ud v:nameU="BotLeftOffset" v:prompt="" v:val="VT0(0.12992125984252):1"/>
				<v:ud v:nameU="BotRightOffset" v:prompt="" v:val="VT0(0.12992125984252):1"/>
			</v:userDefs>
			<v:textBlock v:margins="rect(4,4,4,4)" v:tabSpace="42.5197"/>
			<v:textRect cx="46.7717" cy="583.937" width="93.55" height="22.6772"/>
			<g id="shadow64-72" v:groupContext="shadow" v:shadowOffsetX="0.345598" v:shadowOffsetY="-1.97279" v:shadowType="1"
					transform="matrix(1,0,0,1,0.345598,1.97279)" class="st1">
				<path d="M9.35 595.28 L84.19 595.28 A9.35418 9.35418 -180 0 0 93.54 585.92 L93.54 581.95 A9.35418 9.35418 -180 0
							 0 84.19 572.6 L9.35 572.6 A9.35418 9.35418 -180 0 0 -0 581.95 L0 585.92 A9.35418 9.35418 -180 0 0 9.35
							 595.28 Z" class="st15"/>
			</g>
			<path d="M9.35 595.28 L84.19 595.28 A9.35418 9.35418 -180 0 0 93.54 585.92 L93.54 581.95 A9.35418 9.35418 -180 0 0 84.19
						 572.6 L9.35 572.6 A9.35418 9.35418 -180 0 0 -0 581.95 L0 585.92 A9.35418 9.35418 -180 0 0 9.35 595.28 Z"
					class="st16"/>
			<text x="6.43" y="586.94" class="st4" v:langID="1036"><v:paragraph v:horizAlign="1"/><v:tabList/>LiveData / Observer</text>		</g>
		<g id="shape65-77" v:mID="65" v:groupContext="shape" v:layerMember="1" transform="translate(154.488,-218.445)">
			<title>Lien dynamique.65</title>
			<path d="M7.09 595.28 L7.09 641.42" class="st19"/>
		</g>
		<g id="shape66-83" v:mID="66" v:groupContext="shape" transform="translate(463.465,-195.856)">
			<title>Rectangle à coins arrondis.66</title>
			<desc>Retrofit</desc>
			<v:userDefs>
				<v:ud v:nameU="CTypeTopLeftSnip" v:prompt="" v:val="VT0(0):5"/>
				<v:ud v:nameU="CTypeTopRightSnip" v:prompt="" v:val="VT0(0):5"/>
				<v:ud v:nameU="CTypeBotLeftSnip" v:prompt="" v:val="VT0(0):5"/>
				<v:ud v:nameU="CTypeBotRightSnip" v:prompt="" v:val="VT0(0):5"/>
				<v:ud v:nameU="CornerLockHoriz" v:prompt="" v:val="VT0(1):5"/>
				<v:ud v:nameU="CornerLockVert" v:prompt="" v:val="VT0(1):5"/>
				<v:ud v:nameU="CornerLockDiag" v:prompt="" v:val="VT0(0):5"/>
				<v:ud v:nameU="TopLeftOffset" v:prompt="" v:val="VT0(0.15748031496063):24"/>
				<v:ud v:nameU="TopRightOffset" v:prompt="" v:val="VT0(0.15748031496063):24"/>
				<v:ud v:nameU="BotLeftOffset" v:prompt="" v:val="VT0(0.15748031496063):24"/>
				<v:ud v:nameU="BotRightOffset" v:prompt="" v:val="VT0(0.15748031496063):24"/>
				<v:ud v:nameU="visVersion" v:prompt="" v:val="VT0(15):26"/>
				<v:ud v:nameU="TopLeftOffset" v:prompt="" v:val="VT0(0.12992125984252):1"/>
				<v:ud v:nameU="TopRightOffset" v:prompt="" v:val="VT0(0.12992125984252):1"/>
				<v:ud v:nameU="BotLeftOffset" v:prompt="" v:val="VT0(0.12992125984252):1"/>
				<v:ud v:nameU="BotRightOffset" v:prompt="" v:val="VT0(0.12992125984252):1"/>
			</v:userDefs>
			<v:textBlock v:margins="rect(4,4,4,4)" v:tabSpace="42.5197"/>
			<v:textRect cx="46.7717" cy="583.937" width="93.55" height="22.6772"/>
			<g id="shadow66-84" v:groupContext="shadow" v:shadowOffsetX="0.345598" v:shadowOffsetY="-1.97279" v:shadowType="1"
					transform="matrix(1,0,0,1,0.345598,1.97279)" class="st1">
				<path d="M9.35 595.28 L84.19 595.28 A9.35418 9.35418 -180 0 0 93.54 585.92 L93.54 581.95 A9.35418 9.35418 -180 0
							 0 84.19 572.6 L9.35 572.6 A9.35418 9.35418 -180 0 0 -0 581.95 L0 585.92 A9.35418 9.35418 -180 0 0 9.35
							 595.28 Z" class="st15"/>
			</g>
			<path d="M9.35 595.28 L84.19 595.28 A9.35418 9.35418 -180 0 0 93.54 585.92 L93.54 581.95 A9.35418 9.35418 -180 0 0 84.19
						 572.6 L9.35 572.6 A9.35418 9.35418 -180 0 0 -0 581.95 L0 585.92 A9.35418 9.35418 -180 0 0 9.35 595.28 Z"
					class="st16"/>
			<text x="31.17" y="586.94" class="st4" v:langID="1036"><v:paragraph v:horizAlign="1"/><v:tabList/>Retrofit</text>		</g>
		<g id="shape67-89" v:mID="67" v:groupContext="shape" v:layerMember="1" transform="translate(503.217,-195.856)">
			<title>Lien dynamique.67</title>
			<path d="M7.02 595.28 L7.02 617.24 L7.15 617.24 L7.15 624.04" class="st19"/>
		</g>
		<g id="shape69-94" v:mID="69" v:groupContext="shape" v:layerMember="1" transform="translate(272.126,-358.061)">
			<title>Lien dynamique.69</title>
			<path d="M0 595.28 L-110.55 595.28 L-110.55 645.29" class="st19"/>
		</g>
		<g id="shape70-99" v:mID="70" v:groupContext="shape" v:layerMember="1" transform="translate(396.85,-358.061)">
			<title>Lien dynamique.70</title>
			<path d="M0 595.28 L113.39 595.28 L113.39 629.44" class="st19"/>
		</g>
		<g id="shape71-104" v:mID="71" v:groupContext="shape" transform="translate(272.126,-486.44)">
			<title>Rectangle à coins arrondis.71</title>
			<desc>View</desc>
			<v:userDefs>
				<v:ud v:nameU="CTypeTopLeftSnip" v:prompt="" v:val="VT0(0):5"/>
				<v:ud v:nameU="CTypeTopRightSnip" v:prompt="" v:val="VT0(0):5"/>
				<v:ud v:nameU="CTypeBotLeftSnip" v:prompt="" v:val="VT0(0):5"/>
				<v:ud v:nameU="CTypeBotRightSnip" v:prompt="" v:val="VT0(0):5"/>
				<v:ud v:nameU="CornerLockHoriz" v:prompt="" v:val="VT0(1):5"/>
				<v:ud v:nameU="CornerLockVert" v:prompt="" v:val="VT0(1):5"/>
				<v:ud v:nameU="CornerLockDiag" v:prompt="" v:val="VT0(0):5"/>
				<v:ud v:nameU="TopLeftOffset" v:prompt="" v:val="VT0(0.15748031496063):24"/>
				<v:ud v:nameU="TopRightOffset" v:prompt="" v:val="VT0(0.15748031496063):24"/>
				<v:ud v:nameU="BotLeftOffset" v:prompt="" v:val="VT0(0.15748031496063):24"/>
				<v:ud v:nameU="BotRightOffset" v:prompt="" v:val="VT0(0.15748031496063):24"/>
				<v:ud v:nameU="visVersion" v:prompt="" v:val="VT0(15):26"/>
				<v:ud v:nameU="TopLeftOffset" v:prompt="" v:val="VT0(0.17322834645669):1"/>
				<v:ud v:nameU="TopRightOffset" v:prompt="" v:val="VT0(0.17322834645669):1"/>
				<v:ud v:nameU="BotLeftOffset" v:prompt="" v:val="VT0(0.17322834645669):1"/>
				<v:ud v:nameU="BotRightOffset" v:prompt="" v:val="VT0(0.17322834645669):1"/>
			</v:userDefs>
			<v:textBlock v:margins="rect(4,4,4,4)" v:tabSpace="42.5197" v:verticalAlign="0"/>
			<v:textRect cx="62.3622" cy="565.512" width="124.73" height="59.5276"/>
			<g id="shadow71-105" v:groupContext="shadow" v:shadowOffsetX="0.345598" v:shadowOffsetY="-1.97279" v:shadowType="1"
					transform="matrix(1,0,0,1,0.345598,1.97279)" class="st1">
				<path d="M12.47 595.28 L112.25 595.28 A12.4722 12.4722 -180 0 0 124.72 582.8 L124.72 548.22 A12.4722 12.4722 -180
							 0 0 112.25 535.75 L12.47 535.75 A12.4722 12.4722 -180 0 0 0 548.22 L0 582.8 A12.4722 12.4722 -180 0
							 0 12.47 595.28 Z" class="st5"/>
			</g>
			<path d="M12.47 595.28 L112.25 595.28 A12.4722 12.4722 -180 0 0 124.72 582.8 L124.72 548.22 A12.4722 12.4722 -180 0 0
						 112.25 535.75 L12.47 535.75 A12.4722 12.4722 -180 0 0 0 548.22 L0 582.8 A12.4722 12.4722 -180 0 0 12.47
						 595.28 Z" class="st6"/>
			<text x="52.32" y="548.75" class="st4" v:langID="1036"><v:paragraph v:horizAlign="1"/><v:tabList/>View</text>		</g>
		<g id="shape3-111" v:mID="3" v:groupContext="shape" transform="translate(287.717,-495.653)">
			<title>Rectangle à coins arrondis</title>
			<desc>Activity / Fragment</desc>
			<v:userDefs>
				<v:ud v:nameU="CTypeTopLeftSnip" v:prompt="" v:val="VT0(0):5"/>
				<v:ud v:nameU="CTypeTopRightSnip" v:prompt="" v:val="VT0(0):5"/>
				<v:ud v:nameU="CTypeBotLeftSnip" v:prompt="" v:val="VT0(0):5"/>
				<v:ud v:nameU="CTypeBotRightSnip" v:prompt="" v:val="VT0(0):5"/>
				<v:ud v:nameU="CornerLockHoriz" v:prompt="" v:val="VT0(1):5"/>
				<v:ud v:nameU="CornerLockVert" v:prompt="" v:val="VT0(1):5"/>
				<v:ud v:nameU="CornerLockDiag" v:prompt="" v:val="VT0(0):5"/>
				<v:ud v:nameU="TopLeftOffset" v:prompt="" v:val="VT0(0.15748031496063):24"/>
				<v:ud v:nameU="TopRightOffset" v:prompt="" v:val="VT0(0.15748031496063):24"/>
				<v:ud v:nameU="BotLeftOffset" v:prompt="" v:val="VT0(0.15748031496063):24"/>
				<v:ud v:nameU="BotRightOffset" v:prompt="" v:val="VT0(0.15748031496063):24"/>
				<v:ud v:nameU="visVersion" v:prompt="" v:val="VT0(15):26"/>
				<v:ud v:nameU="TopLeftOffset" v:prompt="" v:val="VT0(0.12992125984252):1"/>
				<v:ud v:nameU="TopRightOffset" v:prompt="" v:val="VT0(0.12992125984252):1"/>
				<v:ud v:nameU="BotLeftOffset" v:prompt="" v:val="VT0(0.12992125984252):1"/>
				<v:ud v:nameU="BotRightOffset" v:prompt="" v:val="VT0(0.12992125984252):1"/>
			</v:userDefs>
			<v:textBlock v:margins="rect(4,4,4,4)" v:tabSpace="42.5197"/>
			<v:textRect cx="46.7717" cy="583.937" width="93.55" height="22.6772"/>
			<g id="shadow3-112" v:groupContext="shadow" v:shadowOffsetX="0.345598" v:shadowOffsetY="-1.97279" v:shadowType="1"
					transform="matrix(1,0,0,1,0.345598,1.97279)" class="st1">
				<path d="M9.35 595.28 L84.19 595.28 A9.35418 9.35418 -180 0 0 93.54 585.92 L93.54 581.95 A9.35418 9.35418 -180 0
							 0 84.19 572.6 L9.35 572.6 A9.35418 9.35418 -180 0 0 0 581.95 L0 585.92 A9.35418 9.35418 -180 0 0 9.35
							 595.28 Z" class="st15"/>
			</g>
			<path d="M9.35 595.28 L84.19 595.28 A9.35418 9.35418 -180 0 0 93.54 585.92 L93.54 581.95 A9.35418 9.35418 -180 0 0 84.19
						 572.6 L9.35 572.6 A9.35418 9.35418 -180 0 0 0 581.95 L0 585.92 A9.35418 9.35418 -180 0 0 9.35 595.28 Z"
					class="st16"/>
			<text x="7.83" y="586.94" class="st4" v:langID="1036"><v:paragraph v:horizAlign="1"/><v:tabList/>Activity / Fragment</text>		</g>
		<g id="shape72-117" v:mID="72" v:groupContext="shape" v:layerMember="1" transform="translate(327.402,-486.44)">
			<title>Lien dynamique.72</title>
			<path d="M7.09 595.28 L7.09 611.43" class="st19"/>
		</g>
		<g id="shape73-122" v:mID="73" v:groupContext="shape" v:layerMember="1" transform="translate(327.402,-403.713)">
			<title>Lien dynamique.73</title>
			<path d="M7.09 595.28 L7.09 612.63" class="st19"/>
		</g>
		<g id="shape74-127" v:mID="74" v:groupContext="shape" transform="translate(114.803,-250.125)">
			<title>Rectangle à coins arrondis.74</title>
			<desc>DAO</desc>
			<v:userDefs>
				<v:ud v:nameU="CTypeTopLeftSnip" v:prompt="" v:val="VT0(0):5"/>
				<v:ud v:nameU="CTypeTopRightSnip" v:prompt="" v:val="VT0(0):5"/>
				<v:ud v:nameU="CTypeBotLeftSnip" v:prompt="" v:val="VT0(0):5"/>
				<v:ud v:nameU="CTypeBotRightSnip" v:prompt="" v:val="VT0(0):5"/>
				<v:ud v:nameU="CornerLockHoriz" v:prompt="" v:val="VT0(1):5"/>
				<v:ud v:nameU="CornerLockVert" v:prompt="" v:val="VT0(1):5"/>
				<v:ud v:nameU="CornerLockDiag" v:prompt="" v:val="VT0(0):5"/>
				<v:ud v:nameU="TopLeftOffset" v:prompt="" v:val="VT0(0.15748031496063):24"/>
				<v:ud v:nameU="TopRightOffset" v:prompt="" v:val="VT0(0.15748031496063):24"/>
				<v:ud v:nameU="BotLeftOffset" v:prompt="" v:val="VT0(0.15748031496063):24"/>
				<v:ud v:nameU="BotRightOffset" v:prompt="" v:val="VT0(0.15748031496063):24"/>
				<v:ud v:nameU="visVersion" v:prompt="" v:val="VT0(15):26"/>
				<v:ud v:nameU="TopLeftOffset" v:prompt="" v:val="VT0(0.12992125984252):1"/>
				<v:ud v:nameU="TopRightOffset" v:prompt="" v:val="VT0(0.12992125984252):1"/>
				<v:ud v:nameU="BotLeftOffset" v:prompt="" v:val="VT0(0.12992125984252):1"/>
				<v:ud v:nameU="BotRightOffset" v:prompt="" v:val="VT0(0.12992125984252):1"/>
			</v:userDefs>
			<v:textBlock v:margins="rect(4,4,4,4)" v:tabSpace="42.5197"/>
			<v:textRect cx="46.7717" cy="583.937" width="93.55" height="22.6772"/>
			<g id="shadow74-128" v:groupContext="shadow" v:shadowOffsetX="0.345598" v:shadowOffsetY="-1.97279" v:shadowType="1"
					transform="matrix(1,0,0,1,0.345598,1.97279)" class="st1">
				<path d="M9.35 595.28 L84.19 595.28 A9.35418 9.35418 -180 0 0 93.54 585.92 L93.54 581.95 A9.35418 9.35418 -180 0
							 0 84.19 572.6 L9.35 572.6 A9.35418 9.35418 -180 0 0 -0 581.95 L0 585.92 A9.35418 9.35418 -180 0 0 9.35
							 595.28 Z" class="st15"/>
			</g>
			<path d="M9.35 595.28 L84.19 595.28 A9.35418 9.35418 -180 0 0 93.54 585.92 L93.54 581.95 A9.35418 9.35418 -180 0 0 84.19
						 572.6 L9.35 572.6 A9.35418 9.35418 -180 0 0 -0 581.95 L0 585.92 A9.35418 9.35418 -180 0 0 9.35 595.28 Z"
					class="st16"/>
			<text x="37.49" y="586.94" class="st4" v:langID="1036"><v:paragraph v:horizAlign="1"/><v:tabList/>DAO</text>		</g>
		<g id="shape76-133" v:mID="76" v:groupContext="shape" transform="translate(447.874,-274.341)">
			<title>Rectangle à coins arrondis.76</title>
			<desc>Model</desc>
			<v:userDefs>
				<v:ud v:nameU="CTypeTopLeftSnip" v:prompt="" v:val="VT0(0):5"/>
				<v:ud v:nameU="CTypeTopRightSnip" v:prompt="" v:val="VT0(0):5"/>
				<v:ud v:nameU="CTypeBotLeftSnip" v:prompt="" v:val="VT0(0):5"/>
				<v:ud v:nameU="CTypeBotRightSnip" v:prompt="" v:val="VT0(0):5"/>
				<v:ud v:nameU="CornerLockHoriz" v:prompt="" v:val="VT0(1):5"/>
				<v:ud v:nameU="CornerLockVert" v:prompt="" v:val="VT0(1):5"/>
				<v:ud v:nameU="CornerLockDiag" v:prompt="" v:val="VT0(0):5"/>
				<v:ud v:nameU="TopLeftOffset" v:prompt="" v:val="VT0(0.15748031496063):24"/>
				<v:ud v:nameU="TopRightOffset" v:prompt="" v:val="VT0(0.15748031496063):24"/>
				<v:ud v:nameU="BotLeftOffset" v:prompt="" v:val="VT0(0.15748031496063):24"/>
				<v:ud v:nameU="BotRightOffset" v:prompt="" v:val="VT0(0.15748031496063):24"/>
				<v:ud v:nameU="visVersion" v:prompt="" v:val="VT0(15):26"/>
				<v:ud v:nameU="TopLeftOffset" v:prompt="" v:val="VT0(0.17322834645669):1"/>
				<v:ud v:nameU="TopRightOffset" v:prompt="" v:val="VT0(0.17322834645669):1"/>
				<v:ud v:nameU="BotLeftOffset" v:prompt="" v:val="VT0(0.17322834645669):1"/>
				<v:ud v:nameU="BotRightOffset" v:prompt="" v:val="VT0(0.17322834645669):1"/>
			</v:userDefs>
			<v:textBlock v:margins="rect(4,4,4,4)" v:tabSpace="42.5197"/>
			<v:textRect cx="62.3622" cy="574.016" width="124.73" height="42.5197"/>
			<g id="shadow76-134" v:groupContext="shadow" v:shadowOffsetX="0.345598" v:shadowOffsetY="-1.97279" v:shadowType="1"
					transform="matrix(1,0,0,1,0.345598,1.97279)" class="st1">
				<path d="M12.47 595.28 L112.25 595.28 A12.4722 12.4722 -180 0 0 124.72 582.8 L124.72 565.23 A12.4722 12.4722 -180
							 0 0 112.25 552.76 L12.47 552.76 A12.4722 12.4722 -180 0 0 0 565.23 L0 582.8 A12.4722 12.4722 -180 0
							 0 12.47 595.28 Z" class="st5"/>
			</g>
			<path d="M12.47 595.28 L112.25 595.28 A12.4722 12.4722 -180 0 0 124.72 582.8 L124.72 565.23 A12.4722 12.4722 -180 0 0
						 112.25 552.76 L12.47 552.76 A12.4722 12.4722 -180 0 0 0 565.23 L0 582.8 A12.4722 12.4722 -180 0 0 12.47
						 595.28 Z" class="st6"/>
			<text x="49.19" y="577.02" class="st4" v:langID="1036"><v:paragraph v:horizAlign="1"/><v:tabList/>Model</text>		</g>
		<g id="shape77-140" v:mID="77" v:groupContext="shape" v:layerMember="1" transform="translate(503.15,-274.341)">
			<title>Lien dynamique.77</title>
			<path d="M7.09 595.28 L7.09 616.4" class="st19"/>
		</g>
		<g id="shape78-145" v:mID="78" v:groupContext="shape" transform="translate(99.2126,-403.005)">
			<title>Rectangle à coins arrondis.78</title>
			<desc>Adapter / ViewHolder</desc>
			<v:userDefs>
				<v:ud v:nameU="CTypeTopLeftSnip" v:prompt="" v:val="VT0(0):5"/>
				<v:ud v:nameU="CTypeTopRightSnip" v:prompt="" v:val="VT0(0):5"/>
				<v:ud v:nameU="CTypeBotLeftSnip" v:prompt="" v:val="VT0(0):5"/>
				<v:ud v:nameU="CTypeBotRightSnip" v:prompt="" v:val="VT0(0):5"/>
				<v:ud v:nameU="CornerLockHoriz" v:prompt="" v:val="VT0(1):5"/>
				<v:ud v:nameU="CornerLockVert" v:prompt="" v:val="VT0(1):5"/>
				<v:ud v:nameU="CornerLockDiag" v:prompt="" v:val="VT0(0):5"/>
				<v:ud v:nameU="TopLeftOffset" v:prompt="" v:val="VT0(0.15748031496063):24"/>
				<v:ud v:nameU="TopRightOffset" v:prompt="" v:val="VT0(0.15748031496063):24"/>
				<v:ud v:nameU="BotLeftOffset" v:prompt="" v:val="VT0(0.15748031496063):24"/>
				<v:ud v:nameU="BotRightOffset" v:prompt="" v:val="VT0(0.15748031496063):24"/>
				<v:ud v:nameU="visVersion" v:prompt="" v:val="VT0(15):26"/>
				<v:ud v:nameU="TopLeftOffset" v:prompt="" v:val="VT0(0.17322834645669):1"/>
				<v:ud v:nameU="TopRightOffset" v:prompt="" v:val="VT0(0.17322834645669):1"/>
				<v:ud v:nameU="BotLeftOffset" v:prompt="" v:val="VT0(0.17322834645669):1"/>
				<v:ud v:nameU="BotRightOffset" v:prompt="" v:val="VT0(0.17322834645669):1"/>
			</v:userDefs>
			<v:textBlock v:margins="rect(4,4,4,4)" v:tabSpace="42.5197"/>
			<v:textRect cx="62.3622" cy="574.016" width="124.73" height="42.5197"/>
			<g id="shadow78-146" v:groupContext="shadow" v:shadowOffsetX="0.345598" v:shadowOffsetY="-1.97279" v:shadowType="1"
					transform="matrix(1,0,0,1,0.345598,1.97279)" class="st1">
				<path d="M12.47 595.28 L112.25 595.28 A12.4722 12.4722 -180 0 0 124.72 582.8 L124.72 565.23 A12.4722 12.4722 -180
							 0 0 112.25 552.76 L12.47 552.76 A12.4722 12.4722 -180 0 0 -0 565.23 L0 582.8 A12.4722 12.4722 -180 0
							 0 12.47 595.28 Z" class="st2"/>
			</g>
			<path d="M12.47 595.28 L112.25 595.28 A12.4722 12.4722 -180 0 0 124.72 582.8 L124.72 565.23 A12.4722 12.4722 -180 0 0
						 112.25 552.76 L12.47 552.76 A12.4722 12.4722 -180 0 0 -0 565.23 L0 582.8 A12.4722 12.4722 -180 0 0 12.47
						 595.28 Z" class="st3"/>
			<text x="17.92" y="577.02" class="st4" v:langID="1036"><v:paragraph v:horizAlign="1"/><v:tabList/>Adapter / ViewHolder</text>		</g>
		<g id="shape79-152" v:mID="79" v:groupContext="shape" v:layerMember="1" transform="translate(287.717,-417.178)">
			<title>Lien dynamique.79</title>
			<path d="M0 588.19 L-56.74 588.19" class="st19"/>
		</g>
		<g id="shape80-157" v:mID="80" v:groupContext="shape" v:layerMember="1" transform="translate(396.85,-433.477)">
			<title>Lien dynamique.80</title>
			<path d="M0 595.28 L113.39 595.28 L113.39 704.85" class="st21"/>
		</g>
	</g>
</svg>
